<?xml version="1.0" encoding="UTF-8" standalone="no"?>
<!-- Created with Inkscape (http://www.inkscape.org/) -->

<svg
   xmlns:osb="http://www.openswatchbook.org/uri/2009/osb"
   xmlns:dc="http://purl.org/dc/elements/1.1/"
   xmlns:cc="http://creativecommons.org/ns#"
   xmlns:rdf="http://www.w3.org/1999/02/22-rdf-syntax-ns#"
   xmlns:svg="http://www.w3.org/2000/svg"
   xmlns="http://www.w3.org/2000/svg"
   xmlns:sodipodi="http://sodipodi.sourceforge.net/DTD/sodipodi-0.dtd"
   xmlns:inkscape="http://www.inkscape.org/namespaces/inkscape"
   width="512"
   height="512"
   id="svg2987"
   version="1.1"
   inkscape:version="0.48.4 r9939"
   sodipodi:docname="com_android_dialer_dialtactsactivity.svg"
   inkscape:export-filename="/home/gandhar/Dropbox/App/iconpack/iconpack1/done/com_android_dialer_dialtactsactivity.png"
   inkscape:export-xdpi="32.400002"
   inkscape:export-ydpi="32.400002">
  <defs
     id="defs2989">
    <linearGradient
       id="linearGradient4032"
       osb:paint="solid">
      <stop
         style="stop-color:#03c0ff;stop-opacity:1;"
         offset="0"
         id="stop4034" />
    </linearGradient>
  </defs>
  <sodipodi:namedview
     id="base"
     pagecolor="#ffffff"
     bordercolor="#666666"
     borderopacity="1.0"
     inkscape:pageopacity="0.0"
     inkscape:pageshadow="2"
     inkscape:zoom="0.70710678"
     inkscape:cx="276.28643"
     inkscape:cy="197.84215"
     inkscape:document-units="px"
     inkscape:current-layer="layer1"
     showgrid="false"
     inkscape:window-width="1600"
     inkscape:window-height="850"
     inkscape:window-x="0"
     inkscape:window-y="0"
     inkscape:window-maximized="1" />
  <metadata
     id="metadata2992">
    <rdf:RDF>
      <cc:Work
         rdf:about="">
        <dc:format>image/svg+xml</dc:format>
        <dc:type
           rdf:resource="http://purl.org/dc/dcmitype/StillImage" />
        <dc:title></dc:title>
      </cc:Work>
    </rdf:RDF>
  </metadata>
  <g
     inkscape:label="Layer 1"
     inkscape:groupmode="layer"
     id="layer1"
     transform="translate(0,-540.36218)">
    <path
       style="fill:#0099ce;fill-opacity:1;fill-rule:nonzero;stroke:none"
       d="m 385.33549,1025.8128 c -1.3332,-0.2253 -8.09617,-1.8882 -15.02882,-3.6951 C 329.78111,1011.5548 260.52207,979.54258 218.92729,952.14879 198.07142,938.41334 171.05363,915.12008 140.99593,884.96066 117.25873,861.14312 102.32676,843.79885 89.76974,825.45867 57.600779,778.47427 33.341634,722.42856 27.014176,680.47501 22.557273,650.92403 32.22454,630.40436 67.306205,594.95139 82.222919,579.8768 89.87786,573.78547 99.584752,569.26609 c 9.033908,-4.20606 10.237958,-3.74774 18.608258,7.08295 9.96108,12.88908 40.12164,55.64676 55.91216,79.26491 20.99223,31.39847 24.29992,39.71856 22.37062,56.27067 -1.2715,10.90867 -2.59221,12.70627 -22.46788,30.58092 -19.15429,17.22589 -20.90621,19.50222 -20.77126,26.98876 0.24026,13.32799 14.92723,39.75591 34.59764,62.2554 18.50662,21.16833 57.8429,46.59427 90.84504,58.71986 9.36172,3.43966 15.73634,4.1948 20.41017,2.41782 4.22915,-1.60793 10.53936,-8.90886 21.07289,-24.38144 13.24176,-19.45067 18.60341,-26.21766 23.4147,-29.55187 3.70744,-2.56928 4.14319,-2.64949 8.47236,-1.55939 14.45053,3.63868 67.49424,33.20827 100.38249,55.95893 25.69322,17.77347 31.85114,25.17391 33.41754,40.16046 1.80025,17.22389 -12.78962,48.23558 -30.82644,65.5237 -10.64535,10.20333 -31.91687,22.06403 -45.84501,25.56243 -7.09161,1.7812 -17.4846,2.3273 -23.84254,1.2526 l 0,0 z"
       id="path4038"
       inkscape:connector-curvature="0" />
  </g>
</svg>
