<?xml version="1.0" encoding="UTF-8" standalone="no"?>
<!-- Created with Inkscape (http://www.inkscape.org/) -->

<svg
   xmlns:dc="http://purl.org/dc/elements/1.1/"
   xmlns:cc="http://creativecommons.org/ns#"
   xmlns:rdf="http://www.w3.org/1999/02/22-rdf-syntax-ns#"
   xmlns:svg="http://www.w3.org/2000/svg"
   xmlns="http://www.w3.org/2000/svg"
   xmlns:sodipodi="http://sodipodi.sourceforge.net/DTD/sodipodi-0.dtd"
   xmlns:inkscape="http://www.inkscape.org/namespaces/inkscape"
   width="512"
   height="512"
   id="svg2"
   version="1.1"
   inkscape:version="0.48.4 r9939"
   sodipodi:docname="com_android_dialer_dialtactsactivity.svg"
   inkscape:export-filename="/home/gandhar/Desktop/android/apktool/patched-cmtheme/com_android_dialer_dialtactsactivity.png"
   inkscape:export-xdpi="25.3125"
   inkscape:export-ydpi="25.3125">
  <defs
     id="defs4" />
  <sodipodi:namedview
     id="base"
     pagecolor="#ffffff"
     bordercolor="#666666"
     borderopacity="1.0"
     inkscape:pageopacity="0.0"
     inkscape:pageshadow="2"
     inkscape:zoom="0.98994949"
     inkscape:cx="240.32713"
     inkscape:cy="340.13041"
     inkscape:document-units="px"
     inkscape:current-layer="layer1"
     showgrid="false"
     inkscape:window-width="1551"
     inkscape:window-height="876"
     inkscape:window-x="49"
     inkscape:window-y="24"
     inkscape:window-maximized="1" />
  <metadata
     id="metadata7">
    <rdf:RDF>
      <cc:Work
         rdf:about="">
        <dc:format>image/svg+xml</dc:format>
        <dc:type
           rdf:resource="http://purl.org/dc/dcmitype/StillImage" />
        <dc:title></dc:title>
      </cc:Work>
    </rdf:RDF>
  </metadata>
  <g
     inkscape:label="Layer 1"
     inkscape:groupmode="layer"
     id="layer1"
     transform="translate(0,-540.36218)">
    <g
       id="g2996"
       transform="matrix(3.1944444,0,0,3.1944444,-905.40866,-1426.759)">
      <path
         style="fill:#fafdfe"
         d="m 291.57141,695.93359 0,-72 72,0 72,0 0,72 0,72 -72,0 -72,0 0,-72 z"
         id="path3002"
         inkscape:connector-curvature="0" />
      <path
         style="fill:#04c2fa"
         d="m 395.83781,760.90552 c -19.41225,-4.38403 -42.98318,-17.24374 -55.63644,-30.35385 -21.51144,-22.28811 -32.89263,-41.15691 -37.49748,-62.16682 -2.36911,-10.80921 -3.84564,-35.25018 -2.30361,-38.13151 1.00551,-1.87881 1.9524,-1.95136 20.36284,-1.56027 21.61697,0.45922 26.48724,1.25687 27.72543,4.54088 0.45613,1.2098 1.15296,9.17464 1.54852,17.69964 0.83206,17.93273 1.0187,17.43247 -9.53306,25.55186 -3.26293,2.51077 -5.9326,5.30664 -5.9326,6.21305 0,2.99675 10.79718,19.60144 18.00567,27.69044 7.32635,8.22126 16.99673,15.54737 20.49433,15.52615 2.87284,-0.0174 3.75564,-0.82565 7.71757,-7.06574 1.95004,-3.07134 4.83633,-6.60857 6.41398,-7.86052 2.61193,-2.07271 3.55108,-2.22046 10.50158,-1.65211 7.72074,0.63134 17.343,3.36838 21.56338,6.13367 2.28386,1.49644 2.30349,1.68865 2.30349,22.55199 0,12.59292 -0.41568,21.8194 -1.03518,22.97695 -0.89288,1.66836 -2.09575,1.92267 -8.75,1.84995 -4.24315,-0.0464 -11.41994,-0.92106 -15.94842,-1.94376 z"
         id="path3000"
         inkscape:connector-curvature="0" />
      <path
         style="fill:#07b0ee"
         d="m 349.4842,738.03368 c -5.58676,-4.02525 -15.6639,-14.74169 -24.54308,-26.10009 -8.75995,-11.20588 -8.77556,-10.14639 0.27431,-18.62221 4.32079,-4.0467 8.15978,-7.36218 8.53109,-7.36772 0.37131,-0.005 2.77897,3.45528 5.35036,7.69071 6.70917,11.05091 18.53629,24.47505 25.53698,28.98523 3.25603,2.0977 5.92399,4.30266 5.9288,4.89993 0.0105,1.3001 -13.39205,14.41406 -14.73123,14.41406 -0.51394,0 -3.37019,-1.75496 -6.34723,-3.89991 z"
         id="path2998"
         inkscape:connector-curvature="0" />
    </g>
    <path
       style="fill:#077aee;fill-opacity:1;stroke:#c8c8c8;stroke-width:0;stroke-miterlimit:4;stroke-opacity:1;stroke-dasharray:none"
       d="m 224.33665,939.00471 c -23.26782,-13.04004 -57.09699,-47.6175 -97.47499,-99.63118 -14.54858,-18.74103 -16.46914,-23.02117 -13.31363,-29.67089 1.82335,-3.84247 23.57301,-25.1775 39.23058,-38.4827 6.85241,-5.82294 7.56668,-6.16516 9.40365,-4.50539 1.09336,0.98788 6.97704,9.54932 13.07482,19.02541 28.74773,44.67456 56.0979,75.57407 87.28893,98.61685 7.93139,5.85941 14.69406,11.36586 15.02817,12.23654 1.15581,3.01201 -41.79745,46.19144 -45.87765,46.11921 -0.42247,-0.006 -3.7344,-1.67602 -7.35988,-3.70785 l 0,0 z"
       id="path3800"
       inkscape:connector-curvature="0" />
    <path
       style="fill:#00a8ff;fill-opacity:1;stroke:#c8c8c8;stroke-width:0;stroke-miterlimit:4;stroke-opacity:1;stroke-dasharray:none"
       d="m 388.83957,1008.2148 c -22.05496,-2.5243 -39.49584,-6.5224 -61.93662,-14.19838 -31.89087,-10.9086 -66.35408,-27.917 -94.97023,-46.8704 -11.64518,-7.71294 -20.76548,-14.39383 -20.29359,-14.86571 0.18942,-0.18944 3.93197,2.00611 8.31673,4.87907 10.81559,7.08646 10.95356,7.10543 17.26131,2.37353 6.88269,-5.16322 38.11272,-36.23468 39.84353,-39.64124 1.25807,-2.47601 1.2629,-2.83667 0.0626,-4.66864 -0.71546,-1.09193 -4.82313,-4.56557 -9.12809,-7.71918 -16.82725,-12.32676 -20.25124,-15.1687 -31.89716,-26.47489 -22.61571,-21.95596 -38.72891,-42.159 -60.48042,-75.83161 -5.589,-8.65205 -11.21965,-16.99099 -12.51261,-18.531 l -2.35079,-2.79999 -2.86021,2.18158 c -4.5027,3.43438 -27.6511,24.40491 -35.83831,32.46654 -7.43504,7.32097 -10.67375,12.34688 -10.70973,16.6196 -0.0329,3.89321 4.94402,11.96678 16.10525,26.12683 22.9124,29.06851 46.2475,55.57148 64.21845,72.93641 6.61535,6.39231 11.58504,11.47464 11.04371,11.29409 -4.91817,-1.64048 -39.90881,-38.02516 -60.48815,-62.89807 C 93.246946,803.39645 66.258172,746.30458 58.1017,684.63879 52.527842,642.49851 50.926436,592.5329 54.943545,586.10051 c 0.600971,-0.96233 2.551914,-2.35639 4.335468,-3.09795 2.830246,-1.17677 6.783307,-1.33857 31.074597,-1.27183 15.30749,0.0422 38.35946,0.46313 51.22665,0.93575 37.45145,1.37552 50.39917,2.92355 59.18229,7.07588 7.11744,3.36484 7.87383,6.40196 10.2028,40.9683 1.945,28.86676 2.72237,53.87518 1.95085,62.75752 -0.82941,9.5488 -3.47642,16.05856 -8.94796,22.00573 -1.9236,2.09085 -9.48738,8.5995 -16.80837,14.46364 -14.22298,11.3927 -22.99722,19.9158 -23.80145,23.12021 -1.05711,4.21175 6.86892,19.58243 21.98094,42.62695 16.50406,25.16724 32.51733,45.17686 48.82449,61.00929 12.55519,12.18968 21.094,19.26256 32.10292,26.59148 13.41989,8.93397 20.8518,10.94759 27.86872,7.55078 4.1124,-1.99081 6.66479,-5.03857 16.28094,-19.44079 11.743,-17.58765 19.95048,-26.60652 27.9793,-30.74541 2.80258,-1.44471 4.6413,-1.66848 13.33483,-1.62271 23.66925,0.12459 55.84035,7.11304 74.6215,16.20989 8.0487,3.89847 11.38187,6.67087 12.60244,10.48222 2.11437,6.60234 2.08488,111.32296 -0.0368,130.40086 -0.93348,8.39398 -2.34436,10.86608 -7.00442,12.27268 -4.25667,1.285 -31.26633,1.1732 -43.07373,-0.1782 l 0,0 z"
       id="path3804"
       inkscape:connector-curvature="0" />
  </g>
</svg>
