<?xml version="1.0" encoding="UTF-8" standalone="no"?>
<!-- Created with Inkscape (http://www.inkscape.org/) -->

<svg
   xmlns:dc="http://purl.org/dc/elements/1.1/"
   xmlns:cc="http://creativecommons.org/ns#"
   xmlns:rdf="http://www.w3.org/1999/02/22-rdf-syntax-ns#"
   xmlns:svg="http://www.w3.org/2000/svg"
   xmlns="http://www.w3.org/2000/svg"
   xmlns:sodipodi="http://sodipodi.sourceforge.net/DTD/sodipodi-0.dtd"
   xmlns:inkscape="http://www.inkscape.org/namespaces/inkscape"
   width="512"
   height="512"
   id="svg2"
   version="1.1"
   inkscape:version="0.48.4 r9939"
   sodipodi:docname="New document 1">
  <defs
     id="defs4" />
  <sodipodi:namedview
     id="base"
     pagecolor="#ffffff"
     bordercolor="#666666"
     borderopacity="1.0"
     inkscape:pageopacity="0.0"
     inkscape:pageshadow="2"
     inkscape:zoom="0.25"
     inkscape:cx="575.37211"
     inkscape:cy="133.13893"
     inkscape:document-units="px"
     inkscape:current-layer="layer1"
     showgrid="false"
     showguides="true"
     inkscape:guide-bbox="true"
     inkscape:window-width="1600"
     inkscape:window-height="850"
     inkscape:window-x="0"
     inkscape:window-y="0"
     inkscape:window-maximized="1" />
  <metadata
     id="metadata7">
    <rdf:RDF>
      <cc:Work
         rdf:about="">
        <dc:format>image/svg+xml</dc:format>
        <dc:type
           rdf:resource="http://purl.org/dc/dcmitype/StillImage" />
        <dc:title></dc:title>
      </cc:Work>
    </rdf:RDF>
  </metadata>
  <g
     inkscape:label="Layer 1"
     inkscape:groupmode="layer"
     id="layer1"
     transform="translate(0,-540.36218)">
    <path
       style="fill:#e7e7e7;fill-opacity:1;fill-rule:nonzero;stroke:none"
       d="m 26,625.36212 0,366.00006 346.80628,0 L 486,878.17462 l 0,-252.8125 -460,0 z"
       id="rect3002"
       inkscape:connector-curvature="0" />
    <rect
       style="fill:#db5043;fill-opacity:1;fill-rule:nonzero;stroke:none"
       id="rect3022"
       width="376"
       height="46"
       x="67.648613"
       y="672.42194" />
    <rect
       style="fill:#a8a8a8;fill-opacity:1;fill-rule:nonzero;stroke:none"
       id="rect3024"
       width="172"
       height="18.6"
       x="272"
       y="741.36218" />
    <rect
       style="fill:#a8a8a8;fill-opacity:1;fill-rule:nonzero;stroke:none"
       id="rect3024-7"
       width="180.91518"
       height="18.660713"
       x="68"
       y="912.70148" />
    <rect
       style="fill:#666666;fill-opacity:1;fill-rule:nonzero;stroke:none"
       id="rect3079"
       width="182"
       height="156"
       x="68"
       y="741.36218" />
    <rect
       style="fill:#a8a8a8;fill-opacity:1;fill-rule:nonzero;stroke:none"
       id="rect3024-77"
       width="142.71428"
       height="18.6"
       x="272"
       y="912.76221" />
    <rect
       style="fill:#a8a8a8;fill-opacity:1;fill-rule:nonzero;stroke:none"
       id="rect3024-79"
       width="172"
       height="18.6"
       x="272"
       y="878.48218" />
    <rect
       style="fill:#a8a8a8;fill-opacity:1;fill-rule:nonzero;stroke:none"
       id="rect3024-0"
       width="172"
       height="18.6"
       x="272"
       y="844.20221" />
    <rect
       style="fill:#a8a8a8;fill-opacity:1;fill-rule:nonzero;stroke:none"
       id="rect3024-1"
       width="172"
       height="18.6"
       x="272"
       y="809.92218" />
    <rect
       style="fill:#a8a8a8;fill-opacity:1;fill-rule:nonzero;stroke:none"
       id="rect3024-2"
       width="172"
       height="18.6"
       x="272"
       y="775.64215" />
    <path
       inkscape:connector-curvature="0"
       style="fill:#e7e7e7;fill-opacity:1;fill-rule:nonzero;stroke:none"
       d="M 50.236716,625.36214 26,601.14549 l 0,24.21665 24.236716,0 z"
       id="path3165-1-7" />
    <path
       inkscape:connector-curvature="0"
       style="fill:#e7e7e7;fill-opacity:1;fill-rule:nonzero;stroke:none"
       d="m 461.55517,625.36214 24.23671,-24.21665 0,24.21665 -24.23671,0 z"
       id="path3165-1-7-6" />
    <path
       id="path3165-1-7-6-8"
       style="fill:#e7e7e7;fill-opacity:1;fill-rule:nonzero;stroke:none"
       d="m 101.34782,625.36214 -24.236709,-24.21665 0,24.21665 24.236709,0 z m -48.473709,0 24.237,-24.21665 0,24.21665 -24.237,0 z"
       inkscape:connector-curvature="0" />
    <path
       id="path3165-1-7-6-8-2"
       style="fill:#e7e7e7;fill-opacity:1;fill-rule:nonzero;stroke:none"
       d="m 356.90338,625.36214 -24.23671,-24.21665 0,24.21665 24.23671,0 z m -48.47371,0 24.237,-24.21665 0,24.21665 -24.237,0 z"
       inkscape:connector-curvature="0" />
    <path
       id="path3165-1-7-6-8-3"
       style="fill:#e7e7e7;fill-opacity:1;fill-rule:nonzero;stroke:none"
       d="m 408.01449,625.36214 -24.23671,-24.21665 0,24.21665 24.23671,0 z m -48.47371,0 24.237,-24.21665 0,24.21665 -24.237,0 z"
       inkscape:connector-curvature="0" />
    <path
       id="path3165-1-7-6-8-0"
       style="fill:#e7e7e7;fill-opacity:1;fill-rule:nonzero;stroke:none"
       d="m 459.1256,625.36214 -24.23671,-24.21665 0,24.21665 24.23671,0 z m -48.47371,0 24.237,-24.21665 0,24.21665 -24.237,0 z"
       inkscape:connector-curvature="0" />
    <path
       id="path3165-1-7-6-8-32"
       style="fill:#e7e7e7;fill-opacity:1;fill-rule:nonzero;stroke:none"
       d="m 305.79227,625.36214 -24.23671,-24.21665 0,24.21665 24.23671,0 z m -48.47371,0 24.237,-24.21665 0,24.21665 -24.237,0 z"
       inkscape:connector-curvature="0" />
    <path
       id="path3165-1-7-6-8-1"
       style="fill:#e7e7e7;fill-opacity:1;fill-rule:nonzero;stroke:none"
       d="m 254.68115,625.36214 -24.23671,-24.21665 0,24.21665 24.23671,0 z m -48.47371,0 24.237,-24.21665 0,24.21665 -24.237,0 z"
       inkscape:connector-curvature="0" />
    <path
       id="path3165-1-7-6-8-7"
       style="fill:#e7e7e7;fill-opacity:1;fill-rule:nonzero;stroke:none"
       d="m 203.57004,625.36214 -24.23671,-24.21665 0,24.21665 24.23671,0 z m -48.47371,0 24.237,-24.21665 0,24.21665 -24.237,0 z"
       inkscape:connector-curvature="0" />
    <path
       id="path3165-1-7-6-8-8"
       style="fill:#e7e7e7;fill-opacity:1;fill-rule:nonzero;stroke:none"
       d="m 152.45893,625.36214 -24.23671,-24.21665 0,24.21665 24.23671,0 z m -48.47371,0 24.237,-24.21665 0,24.21665 -24.237,0 z"
       inkscape:connector-curvature="0" />
    <path
       style="fill:#666666;fill-opacity:1;fill-rule:nonzero;stroke:none"
       d="m 372.62498,991.32828 113.09379,-113.18758 -113.09379,0 0,113.18758 z"
       id="path3165"
       inkscape:connector-curvature="0" />
    <path
       inkscape:connector-curvature="0"
       style="fill:#a8a8a8;fill-opacity:1;fill-rule:nonzero;stroke:none"
       d="m 372.20811,878.17463 -113.09375,113.18755 113.09375,0 0,-113.18755 z"
       id="path3165-1" />
    <path
       style="fill:#ffffff;fill-opacity:1;fill-rule:nonzero;stroke:none"
       d="m 119.40625,871.29964 -16.65625,0 0,0.0625 16.65625,0 0,-0.0625 z"
       id="path3414"
       inkscape:connector-curvature="0" />
    <path
       style="fill:#ffffff;fill-opacity:1;fill-rule:nonzero;stroke:none"
       d="m 119.3125,769.33089 -16.5625,16.65625 0,68.65625 16.65625,16.65625 0,-101.96875 -0.0937,0 z"
       id="path3374"
       inkscape:connector-curvature="0" />
    <path
       style="fill:#ffffff;fill-opacity:1;fill-rule:nonzero;stroke:none"
       d="M 136.15625,769.33089 119.5,785.98714 l 72.78125,0 16.65625,-16.65625 -72.78125,0 z"
       id="path3397"
       inkscape:connector-curvature="0" />
    <path
       style="fill:#ffffff;fill-opacity:1;fill-rule:nonzero;stroke:none"
       d="m 119.4375,769.33089 0,16.65625 0.0625,0 0,-16.65625 -0.0625,0 z"
       id="rect3327"
       inkscape:connector-curvature="0" />
    <path
       style="fill:#ffffff;fill-opacity:1;fill-rule:nonzero;stroke:none"
       d="m 136.0625,785.92464 0,68.6875 16.65625,-16.65625 0,-52.03125 -16.65625,0 z"
       id="rect3329"
       inkscape:connector-curvature="0" />
    <path
       style="fill:#ffffff;fill-opacity:1;fill-rule:nonzero;stroke:none"
       d="m 171.375,813.01839 -16.65625,16.65625 50.03125,0 0,-16.65625 -33.375,0 z"
       id="path3400"
       inkscape:connector-curvature="0" />
    <path
       style="fill:#ffffff;fill-opacity:1;fill-rule:nonzero;stroke:none"
       d="m 188.125,829.67464 0,41.625 16.65625,-16.65625 0,-24.96875 -16.65625,0 z"
       id="rect3333"
       inkscape:connector-curvature="0" />
    <rect
       style="fill:#ffffff;fill-opacity:1;fill-rule:nonzero;stroke:none"
       id="rect3335"
       width="68.719002"
       height="16.656"
       x="119.40601"
       y="854.64368" />
  </g>
</svg>
