<?xml version="1.0" encoding="UTF-8" standalone="no"?>
<!-- Created with Inkscape (http://www.inkscape.org/) -->

<svg
   xmlns:dc="http://purl.org/dc/elements/1.1/"
   xmlns:cc="http://creativecommons.org/ns#"
   xmlns:rdf="http://www.w3.org/1999/02/22-rdf-syntax-ns#"
   xmlns:svg="http://www.w3.org/2000/svg"
   xmlns="http://www.w3.org/2000/svg"
   xmlns:sodipodi="http://sodipodi.sourceforge.net/DTD/sodipodi-0.dtd"
   xmlns:inkscape="http://www.inkscape.org/namespaces/inkscape"
   id="svg2"
   version="1.1"
   inkscape:version="0.48.4 r9939"
   width="512"
   height="512"
   sodipodi:docname="com_android_vending_assetbrowseractivity.svg"
   inkscape:export-filename="C:\Users\gandhar\Dropbox\App\iconpack\iconpack1\done\com_android_vending_assetbrowseractivity.png"
   inkscape:export-xdpi="25.3125"
   inkscape:export-ydpi="25.3125">
  <metadata
     id="metadata8">
    <rdf:RDF>
      <cc:Work
         rdf:about="">
        <dc:format>image/svg+xml</dc:format>
        <dc:type
           rdf:resource="http://purl.org/dc/dcmitype/StillImage" />
        <dc:title />
      </cc:Work>
    </rdf:RDF>
  </metadata>
  <defs
     id="defs6" />
  <sodipodi:namedview
     pagecolor="#ffffff"
     bordercolor="#666666"
     borderopacity="1"
     objecttolerance="10"
     gridtolerance="10"
     guidetolerance="10"
     inkscape:pageopacity="0"
     inkscape:pageshadow="2"
     inkscape:window-width="1600"
     inkscape:window-height="838"
     id="namedview4"
     showgrid="false"
     inkscape:zoom="1"
     inkscape:cx="375.79123"
     inkscape:cy="211.00585"
     inkscape:window-x="-8"
     inkscape:window-y="-8"
     inkscape:window-maximized="1"
     inkscape:current-layer="svg2" />
  <path
     style="fill:#ffad62;fill-opacity:1;stroke:none"
     d="m 325.62189,288.06568 c -18.41179,-17.71337 -33.69481,-32.72213 -33.96224,-33.35278 -0.26747,-0.6306 15.45982,-17.13464 34.94944,-36.67561 l 35.4357,-35.52902 13.18685,7.3945 c 35.95852,20.16349 71.70303,42.45586 78.17089,48.75189 10.15886,9.88893 10.13077,18.61636 -0.0896,27.88438 -12.93379,11.72851 -84.14222,53.72306 -91.10742,53.72978 -1.70918,0.002 -18.17178,-14.48974 -36.5836,-32.20314 l 10e-6,0 z"
     id="path3297"
     inkscape:connector-curvature="0" />
  <path
     style="fill:#70e375;fill-opacity:1;stroke:none"
     d="M 221.26837,179.50332 C 127.24343,88.440048 73.239386,34.797759 74.383281,33.602121 c 1.139313,-1.19084 16.151054,6.110171 70.993029,34.527748 62.54315,32.408121 192.02024,100.575511 208.14734,109.585861 l 13.14957,7.34681 -33.08756,34.62451 c -18.19816,19.04352 -33.52577,34.63346 -34.06136,34.64433 -0.53559,0.0109 -35.75077,-33.66176 -78.25593,-74.82806 z"
     id="path3295"
     inkscape:connector-curvature="0" />
  <path
     style="fill:#fb5375;fill-opacity:1;stroke:none"
     d="m 88.443108,461.74699 c 6.360098,-6.97508 56.366722,-56.58626 111.125832,-110.24703 l 99.56204,-97.56509 31.78865,32.59694 c 17.48378,17.9283 31.7834,33.06624 31.77691,33.63984 -0.0284,2.50007 -280.139575,154.3218 -284.629812,154.27079 -0.653077,-0.007 4.016283,-5.72038 10.37638,-12.69545 l 0,0 z"
     id="path3299"
     inkscape:connector-curvature="0" />
  <path
     style="fill:#27b6e9;fill-opacity:1;stroke:none"
     d="m 59.002774,481.72916 c -2.131524,-2.34895 -4.832838,-6.13657 -6.002916,-8.41688 -4.293023,-8.36656 -1.001276,-410.341294 3.54091,-432.402201 1.071764,-5.205443 3.527061,-11.048712 5.456215,-12.985091 3.416019,-3.428742 3.871858,-3.207721 17.466273,8.469545 7.677296,6.594593 60.337694,58.312345 117.023104,114.928317 L 299.55076,254.26099 190.81309,363.59516 C 97.449865,457.47058 67.826237,486 63.713592,486 c -0.459422,0 -2.579294,-1.92188 -4.710818,-4.27084 z"
     id="path3293"
     inkscape:connector-curvature="0" />
</svg>
