<?xml version="1.0" encoding="UTF-8" standalone="no"?>
<!-- Created with Inkscape (http://www.inkscape.org/) -->

<svg
   xmlns:dc="http://purl.org/dc/elements/1.1/"
   xmlns:cc="http://creativecommons.org/ns#"
   xmlns:rdf="http://www.w3.org/1999/02/22-rdf-syntax-ns#"
   xmlns:svg="http://www.w3.org/2000/svg"
   xmlns="http://www.w3.org/2000/svg"
   xmlns:sodipodi="http://sodipodi.sourceforge.net/DTD/sodipodi-0.dtd"
   xmlns:inkscape="http://www.inkscape.org/namespaces/inkscape"
   width="512"
   height="512"
   id="svg2"
   version="1.1"
   inkscape:version="0.48.4 r9939"
   sodipodi:docname="com_android_dialer_dialtactsactivity.svg"
   inkscape:export-filename="/home/gandhar/Desktop/android/apktool/patched-cmtheme/com_android_dialer_dialtactsactivity.png"
   inkscape:export-xdpi="25.3125"
   inkscape:export-ydpi="25.3125">
  <defs
     id="defs4" />
  <sodipodi:namedview
     id="base"
     pagecolor="#ffffff"
     bordercolor="#666666"
     borderopacity="1.0"
     inkscape:pageopacity="0.0"
     inkscape:pageshadow="2"
     inkscape:zoom="0.175"
     inkscape:cx="725.17896"
     inkscape:cy="-689.68603"
     inkscape:document-units="px"
     inkscape:current-layer="layer1"
     showgrid="false"
     inkscape:window-width="1551"
     inkscape:window-height="876"
     inkscape:window-x="49"
     inkscape:window-y="24"
     inkscape:window-maximized="1" />
  <metadata
     id="metadata7">
    <rdf:RDF>
      <cc:Work
         rdf:about="">
        <dc:format>image/svg+xml</dc:format>
        <dc:type
           rdf:resource="http://purl.org/dc/dcmitype/StillImage" />
      </cc:Work>
    </rdf:RDF>
  </metadata>
  <g
     inkscape:label="Layer 1"
     inkscape:groupmode="layer"
     id="layer1"
     transform="translate(0,-540.36218)">
    <path
       style="fill:#077aee;fill-opacity:1;stroke:#c8c8c8;stroke-width:0;stroke-miterlimit:4;stroke-opacity:1;stroke-dasharray:none"
       d="M 233.55635,954.07404 C 207.74187,939.60447 170.2101,901.23657 125.41273,843.52093 109.27182,822.72544 107.14106,817.9761 110.64194,810.59741 c 2.02291,-4.2637 26.15306,-27.93754 43.52435,-42.7013 7.60241,-6.46128 8.39486,-6.84101 10.43289,-4.99929 1.21302,1.09617 7.74067,10.59614 14.50584,21.11104 31.89418,49.57193 63.97831,83.28243 98.5832,108.85124 8.79948,6.50175 16.6891,9.92224 17.05977,10.88833 1.28232,3.34228 -48.49945,54.52105 -53.02622,54.4409 -0.46871,-0.0108 -4.14314,-1.85978 -8.16542,-4.11429 z"
       id="path3800"
       inkscape:connector-curvature="0"
       sodipodi:nodetypes="csssssscccc" />
    <path
       style="fill:#00a8ff;fill-opacity:1;stroke:#c8c8c8;stroke-width:0;stroke-miterlimit:4;stroke-opacity:1;stroke-dasharray:none"
       d="m 218.87251,943.1674 c 0.20515,-0.2038 3.50616,2.49784 8.25479,5.58865 11.71312,7.62381 11.86253,7.64422 18.69374,2.55351 7.45384,-5.55474 41.27549,-38.98229 43.14993,-42.64716 1.36247,-2.66376 1.3677,-3.05177 0.0678,-5.02266 -0.77484,-1.17472 -5.22338,-4.91176 -9.88559,-8.30451 -18.22365,-13.26147 -21.93178,-16.31891 -34.54413,-28.48243 -24.49247,-23.62084 -41.94282,-45.35584 -65.49938,-81.58178 -6.05279,-9.30812 -12.15071,-18.27938 -13.55096,-19.93617 l -2.54587,-3.01231 -3.09757,2.34701 c -4.87635,3.6948 -29.94572,26.25549 -38.81235,34.92841 -8.05203,7.87611 -11.5595,13.28312 -11.59847,17.87984 -0.0356,4.18842 5.35429,12.8742 17.44174,28.10798 24.81377,31.27272 50.08534,59.78536 69.54761,78.46704 7.16433,6.87703 13.50365,12.41266 12.91739,12.21842 M 142.94622,868.53581 C 89.903468,804.85012 60.675032,743.42908 51.8417,677.08729 c -6.036406,-45.3357 -7.770697,-99.09011 -3.420228,-106.01025 0.65084,-1.03531 2.763679,-2.53508 4.695237,-3.33287 3.065117,-1.266 7.346221,-1.44007 33.653316,-1.36827 16.577785,0.0454 41.542715,0.49825 55.477685,1.00671 40.55936,1.47982 54.58154,3.14524 64.09353,7.61243 7.70807,3.61999 8.52724,6.88741 11.04947,44.07485 2.10641,31.05567 2.94829,57.96044 2.11274,67.51631 -0.89823,10.27286 -3.76491,17.27625 -9.6905,23.67438 -2.08323,2.2494 -10.27469,9.25159 -18.2032,15.56039 -15.40328,12.25659 -24.90564,21.42598 -25.77661,24.87337 -1.14484,4.53112 7.43893,21.06733 23.80502,45.85928 17.87364,27.07562 35.21577,48.60254 52.87617,65.63551 13.59709,13.114 22.84448,20.7232 34.76698,28.60786 14.53353,9.61142 22.58218,11.77773 30.1814,8.12334 4.45367,-2.14177 7.21786,-5.42063 17.632,-20.91495 12.71749,-18.92128 21.60607,-28.62404 30.30116,-33.07677 3.03515,-1.55426 5.02645,-1.795 14.44142,-1.74576 25.63343,0.13404 60.47424,7.65241 80.81394,17.43906 8.71662,4.19408 12.32639,7.17671 13.64825,11.27706 2.28983,7.10299 2.25789,119.76438 -0.0399,140.28893 -1.01095,9.0305 -2.53891,11.6901 -7.58569,13.2034 -4.6099,1.3824 -33.86095,1.2621 -46.64819,-0.1918 l 0,0 2e-5,0 c -23.88518,-2.7157 -42.77338,-7.0169 -67.0764,-15.275 -34.53733,-11.73582 -71.86046,-30.03394 -102.85131,-50.42454 -12.61155,-8.2978 -18.74835,-13.4657 -25.98919,-18.25381 -7.24084,-4.78812 -48.87553,-45.95137 -71.16265,-72.71034 z"
       id="path3804"
       inkscape:connector-curvature="0"
       sodipodi:nodetypes="cssccsssscsscsscsscsssssssscssssssssssccccsscs" />
  </g>
</svg>
