<?xml version="1.0" encoding="UTF-8" standalone="no"?>
<!-- Created with Inkscape (http://www.inkscape.org/) -->

<svg
   xmlns:dc="http://purl.org/dc/elements/1.1/"
   xmlns:cc="http://creativecommons.org/ns#"
   xmlns:rdf="http://www.w3.org/1999/02/22-rdf-syntax-ns#"
   xmlns:svg="http://www.w3.org/2000/svg"
   xmlns="http://www.w3.org/2000/svg"
   xmlns:sodipodi="http://sodipodi.sourceforge.net/DTD/sodipodi-0.dtd"
   xmlns:inkscape="http://www.inkscape.org/namespaces/inkscape"
   id="svg3074"
   version="1.1"
   inkscape:version="0.48.4 r9939"
   width="512"
   height="512"
   sodipodi:docname="com_android_camera_cameralauncher.svg"
   inkscape:export-filename="/home/gandhar/apktl/apktool/patched-cmtheme/com_android_camera_cameralauncher.png"
   inkscape:export-xdpi="25.3125"
   inkscape:export-ydpi="25.3125">
  <metadata
     id="metadata3080">
    <rdf:RDF>
      <cc:Work
         rdf:about="">
        <dc:format>image/svg+xml</dc:format>
        <dc:type
           rdf:resource="http://purl.org/dc/dcmitype/StillImage" />
        <dc:title />
      </cc:Work>
    </rdf:RDF>
  </metadata>
  <defs
     id="defs3078" />
  <sodipodi:namedview
     pagecolor="#ffffff"
     bordercolor="#000000"
     borderopacity="0.20784314"
     objecttolerance="10"
     gridtolerance="10"
     guidetolerance="10"
     inkscape:pageopacity="0"
     inkscape:pageshadow="2"
     inkscape:window-width="1551"
     inkscape:window-height="876"
     id="namedview3076"
     showgrid="false"
     showguides="true"
     inkscape:guide-bbox="true"
     inkscape:zoom="0.50000001"
     inkscape:cx="358.72806"
     inkscape:cy="303.56128"
     inkscape:window-x="49"
     inkscape:window-y="24"
     inkscape:window-maximized="1"
     inkscape:current-layer="layer2"
     showborder="true"
     inkscape:showpageshadow="false"
     borderlayer="false" />
  <g
     inkscape:groupmode="layer"
     id="layer2"
     inkscape:label="Layer1"
     style="display:inline"
     transform="translate(0,368)">
    <rect
       style="fill:#939393;fill-opacity:1;stroke:#000000;stroke-width:0;stroke-miterlimit:4;stroke-opacity:1;stroke-dasharray:none"
       id="rect4087"
       width="460"
       height="335.95328"
       x="26.007839"
       y="-271.38763" />
    <rect
       style="fill:#353535;fill-opacity:1;stroke:#000000;stroke-width:0;stroke-miterlimit:4;stroke-opacity:1;stroke-dasharray:none"
       id="rect4089"
       width="460"
       height="229.38171"
       x="26"
       y="-215.88142"
       ry="0" />
    <rect
       style="fill:#323232;fill-opacity:1;stroke:#000000;stroke-width:0;stroke-miterlimit:4;stroke-opacity:1;stroke-dasharray:none"
       id="rect4091"
       width="82.077278"
       height="36.52494"
       x="389.51077"
       y="-262.272" />
    <rect
       style="fill:#ffffff;fill-opacity:1;stroke:#000000;stroke-width:0;stroke-miterlimit:4;stroke-opacity:1;stroke-dasharray:none"
       id="rect4093"
       width="64.426254"
       height="23.868881"
       x="398.44656"
       y="-257.94229" />
    <path
       id="path3120"
       style="fill:#ffffff;fill-opacity:1;stroke:#000000;stroke-width:0;stroke-linecap:butt;stroke-linejoin:miter;stroke-miterlimit:4;stroke-opacity:1;stroke-dasharray:none"
       d="m 50.668309,-307.05795 -7.229929,7.24177 0,20.44747 65.49466,0 0,-20.73145 -6.80465,-6.81582 z"
       inkscape:connector-curvature="0"
       sodipodi:nodetypes="ccccccc"
       inkscape:export-filename="/home/gandhar/apktl/apktool/patched-cmtheme/path3106.png"
       inkscape:export-xdpi="25.3125"
       inkscape:export-ydpi="25.3125" />
    <path
       style="fill:#ffffff;fill-opacity:1;stroke:#000000;stroke-width:0;stroke-linecap:butt;stroke-linejoin:miter;stroke-miterlimit:4;stroke-opacity:1;stroke-dasharray:none"
       d="m 26.007069,-271.38819 460.000001,0 m 0,0 -17.64923,-20.90938 -424.531481,0 -17.81929,20.90938"
       id="path3106"
       inkscape:connector-curvature="0"
       sodipodi:nodetypes="cccccc"
       inkscape:export-xdpi="25.3125"
       inkscape:export-ydpi="25.3125" />
    <rect
       style="fill:#6f6f6f;fill-opacity:1;stroke:#000000;stroke-width:0;stroke-miterlimit:4;stroke-opacity:1;stroke-dasharray:none"
       id="rect4141"
       width="65.419128"
       height="19.544754"
       x="43.43853"
       y="-298.91354" />
    <path
       sodipodi:type="arc"
       style="fill:#353535;fill-opacity:1;stroke:#000000;stroke-width:0;stroke-miterlimit:4;stroke-opacity:1;stroke-dasharray:none;display:inline"
       id="path4099-3"
       sodipodi:cx="91.570328"
       sodipodi:cy="107.76078"
       sodipodi:rx="38.890873"
       sodipodi:ry="38.890873"
       d="m 130.4612,107.76078 c 0,21.47884 -17.41204,38.89087 -38.890872,38.89087 -21.478836,0 -38.890873,-17.41203 -38.890873,-38.89087 0,-21.478836 17.412037,-38.890873 38.890873,-38.890873 21.478832,0 38.890872,17.412037 38.890872,38.890873 z"
       transform="matrix(3.9986371,0,0,3.9986371,-106.89078,-510.6814)" />
    <path
       sodipodi:type="arc"
       style="fill:#ffffff;fill-opacity:1;stroke:#000000;stroke-width:0;stroke-miterlimit:4;stroke-opacity:1;stroke-dasharray:none"
       id="path4099"
       sodipodi:cx="91.570328"
       sodipodi:cy="107.76078"
       sodipodi:rx="38.890873"
       sodipodi:ry="38.890873"
       d="m 130.4612,107.76078 c 0,21.47884 -17.41204,38.89087 -38.890872,38.89087 -21.478836,0 -38.890873,-17.41203 -38.890873,-38.89087 0,-21.478836 17.412037,-38.890873 38.890873,-38.890873 21.478832,0 38.890872,17.412037 38.890872,38.890873 z"
       transform="matrix(3.9986371,0,0,3.9986371,-106.89078,-482.40674)" />
    <path
       sodipodi:type="arc"
       style="fill:#2261b6;fill-opacity:1;stroke:#000000;stroke-width:0;stroke-miterlimit:4;stroke-opacity:1;stroke-dasharray:none;display:inline"
       id="path4101-6"
       sodipodi:cx="87.32769"
       sodipodi:cy="100.51293"
       sodipodi:rx="35.708893"
       sodipodi:ry="35.708893"
       d="m 123.03658,100.51293 c 0,19.72148 -15.98741,35.70889 -35.70889,35.70889 -19.721477,0 -35.708893,-15.98741 -35.708893,-35.70889 0,-19.721475 15.987416,-35.708891 35.708893,-35.708891 19.72148,0 35.70889,15.987416 35.70889,35.708891 z"
       transform="matrix(3.7610942,0,0,3.7610942,-69.181939,-429.54911)" />
    <path
       sodipodi:type="arc"
       style="fill:#4887dd;fill-opacity:1;stroke:#c8c8c8;stroke-width:0;stroke-miterlimit:4;stroke-opacity:1;stroke-dasharray:none"
       id="path3764"
       sodipodi:cx="269.5"
       sodipodi:cy="309.5"
       sodipodi:rx="110.5"
       sodipodi:ry="110.5"
       d="m 380,309.5 a 110.5,110.5 0 1 1 -221,0 110.5,110.5 0 1 1 221,0 z"
       transform="matrix(1.0045249,0,0,1.0045249,-11.455459,-372.90045)" />
    <path
       sodipodi:type="arc"
       style="fill:#82ade8;fill-opacity:1;stroke:#c8c8c8;stroke-width:0;stroke-miterlimit:4;stroke-opacity:1;stroke-dasharray:none"
       id="path2992"
       sodipodi:cx="262"
       sodipodi:cy="283"
       sodipodi:rx="61"
       sodipodi:ry="61"
       d="m 323,283 a 61,61 0 1 1 -122,0 61,61 0 1 1 122,0 z"
       transform="matrix(1.147541,0,0,0.6557377,-41.391741,-299.05077)" />
  </g>
</svg>
